<svg xmlns="http://www.w3.org/2000/svg" viewBox="0 0 900 1500" role="img" aria-labelledby="title desc">
<title id="title">Mulher preocupada olhando o celular à noite</title>
<desc id="desc">Cena emocional e noturna, em tons escuros e dourados, de uma mulher sentada na cama olhando o celular.</desc>
<defs>
  <linearGradient id="bg" x1="0" y1="0" x2="1" y2="1"><stop stop-color="#080608"/><stop offset=".55" stop-color="#211216"/><stop offset="1" stop-color="#5a2e16"/></linearGradient>
  <radialGradient id="lamp" cx="80%" cy="30%" r="45%"><stop stop-color="#f1bb6b" stop-opacity=".85"/><stop offset=".35" stop-color="#a45a28" stop-opacity=".35"/><stop offset="1" stop-color="#10090c" stop-opacity="0"/></radialGradient>
  <linearGradient id="skin" x1="0" y1="0" x2="1" y2="1"><stop stop-color="#8c503c"/><stop offset="1" stop-color="#3d211d"/></linearGradient>
  <linearGradient id="dress" x1="0" y1="0" x2="1" y2="1"><stop stop-color="#1a1719"/><stop offset="1" stop-color="#050405"/></linearGradient>
  <linearGradient id="phone" x1="0" y1="0" x2="1" y2="1"><stop stop-color="#343438"/><stop offset="1" stop-color="#09090b"/></linearGradient>
  <filter id="blur"><feGaussianBlur stdDeviation="18"/></filter>
  <filter id="shadow"><feDropShadow dx="0" dy="18" stdDeviation="22" flood-color="#000" flood-opacity=".7"/></filter>
</defs>
<rect width="900" height="1500" fill="url(#bg)"/>
<rect width="900" height="1500" fill="url(#lamp)"/>
<ellipse cx="720" cy="445" rx="160" ry="280" fill="#b8662d" opacity=".18" filter="url(#blur)"/>
<rect x="684" y="360" width="122" height="255" rx="18" fill="#2b1a14"/>
<path d="M650 365h188l-26-116H680z" fill="#d99b57" opacity=".88"/>
<rect x="728" y="610" width="18" height="190" fill="#321e17"/>
<ellipse cx="737" cy="798" rx="75" ry="20" fill="#1a1010"/>
<rect x="80" y="720" width="740" height="430" rx="42" fill="#24171a"/>
<path d="M70 1000c190-80 420-45 760 20v310H70z" fill="#100c0e"/>
<path d="M320 420c44-80 162-112 247-48 65 49 70 132 41 199-28 65-30 124 18 194-88 44-218 46-306-11-72-48-111-126-93-209 12-55 42-93 93-125z" fill="#0d0b0c"/>
<path d="M375 448c38-46 122-43 166 0 48 46 42 134 4 192-28 44-41 100-11 157-60 19-133 8-177-30-53-46-73-113-50-180 14-42 37-82 68-139z" fill="url(#skin)"/>
<path d="M345 476c26-118 156-170 245-88 39 36 59 90 52 146-30-20-55-43-78-75-45 48-98 63-174 58-14 52-9 107 12 151-62-37-84-118-57-192z" fill="#151113"/>
<path d="M337 760c78-54 204-55 284 8 73 58 102 173 100 315H245c-10-133 10-263 92-323z" fill="url(#dress)" filter="url(#shadow)"/>
<path d="M422 720c43 30 109 30 148 0l28 58c-58 40-142 40-203 0z" fill="#342124"/>
<path d="M530 651c22 29 35 61 35 98-3 22-25 37-46 27-15-7-22-24-20-40 4-35 15-65 31-85z" fill="url(#skin)"/>
<path d="M489 735c31-20 65-7 78 23 17 40 1 81-34 103-31 20-69 15-88-16-18-30-9-69 14-93 9-9 19-14 30-17z" fill="url(#skin)"/>
<rect x="455" y="805" width="196" height="330" rx="30" transform="rotate(-10 455 805)" fill="url(#phone)" stroke="#5b5b63" stroke-width="7" filter="url(#shadow)"/>
<rect x="485" y="842" width="138" height="232" rx="18" transform="rotate(-10 485 842)" fill="#0b1116"/>
<circle cx="573" cy="1100" r="9" fill="#777"/>
<path d="M355 845c48-35 104-17 128 25 19 34 9 75-22 96-32 21-74 11-97-19-22-29-28-72-9-102z" fill="url(#skin)"/>
<path d="M329 674c-1 44 22 78 64 89" fill="none" stroke="#2d1717" stroke-width="18" stroke-linecap="round"/>
<path d="M402 586c25 14 52 14 76 0" fill="none" stroke="#2b1715" stroke-width="10" stroke-linecap="round"/>
<path d="M419 548c19-10 39-10 58 0" fill="none" stroke="#160f10" stroke-width="9" stroke-linecap="round"/>
<path d="M506 548c18-9 37-8 54 2" fill="none" stroke="#160f10" stroke-width="9" stroke-linecap="round"/>
<ellipse cx="448" cy="565" rx="8" ry="6" fill="#1a1212"/>
<ellipse cx="532" cy="565" rx="8" ry="6" fill="#1a1212"/>
<path d="M462 635c24 8 48 7 70-3" fill="none" stroke="#4a2423" stroke-width="8" stroke-linecap="round"/>
<path d="M478 576c-3 25-4 45 6 61" fill="none" stroke="#6c392d" stroke-width="5" stroke-linecap="round"/>
<g transform="translate(615 1060) rotate(8)">
  <path d="M0 95C18 25 92 0 145 25c42 20 61 75 48 123-15 57-77 91-136 76C7 210-15 157 0 95z" fill="#070708" stroke="#3b2a30" stroke-width="6"/>
  <path d="M20 99c20-28 44-39 70-33 24 6 36 24 42 49-19 18-42 27-68 26-22-1-36-14-44-42z" fill="#171216"/>
  <path d="M113 76c18-14 37-17 57-8 14 7 22 20 24 39-16 14-34 20-53 17-18-3-27-19-28-48z" fill="#171216"/>
  <ellipse cx="76" cy="102" rx="18" ry="12" fill="#050506"/>
  <ellipse cx="157" cy="95" rx="16" ry="11" fill="#050506"/>
</g>
<rect y="1040" width="900" height="460" fill="url(#bg)" opacity=".1"/>
</svg>